<svg xmlns="http://www.w3.org/2000/svg" viewBox="0 0 345 396" width="345" height="396"><defs></defs><g transform="matrix(3,0,0,3,0.900009155,0)">
<g>
	<g transform="matrix(1,0,0,1,57.5,66)">
		<g transform="matrix(1,0,0,1,146.199996948,34)">
			<g>
				<path d="M-151.400002,-51.600006C-146.5,-50.399994 -141.800003,-49.699997 -136.699997,-49.399994 C-134.599998,-49.300003 -132.5,-49.300003 -130.5,-49.300003 C-129.5,-49.300003 -126.800003,-49.899994 -127.600006,-49.300003 C-128.5,-48.399994 -133.199997,-48 -133.900002,-47.899994 C-135.300001,-47.633331 -136.733332,-47.433334 -138.199997,-47.300003 C-141.900002,-46.899994 -145.5,-46.899994 -149.199997,-46.800003 " fill="#654019" stroke="#654019" stroke-miterlimit="10"/>
			</g>
			<g>
				<path d="M-156.5,-42.5C-157.099998,-42.800003 -161.5,-42.899994 -161.400002,-42.5 C-161.199997,-42 -160.300003,-42.100006 -159.800003,-42 C-158.133336,-41.733337 -156.46667,-41.533335 -154.800003,-41.399994 " fill="#654019" stroke="#654019" stroke-miterlimit="10"/>
			</g>
			<g>
				<path d="M-153.199997,-59.199997C-153.199997,-59.199997 -165.099998,-16.5 -165.099998,-16.5 C-165.099998,-16.5 -126.300003,-13.5 -126.300003,-13.5 C-126.300003,-13.5 -135.300003,-59.199997 -135.300003,-59.199997 " fill="#654121"/>
			</g>
			<g>
				<path d="M-161.199997,-59.699997C-172.699997,-59.699997 -182,-67.199997 -182,-76.399994 C-182,-85.600006 -172.699997,-93 -161.199997,-93 C-149.699997,-93 -140.400002,-85.600006 -140.400002,-76.399994 C-140.400002,-67.199997 -149.699997,-59.699997 -161.199997,-59.699997 C-161.199997,-59.699997 -161.199997,-59.699997 -161.199997,-59.699997 Z" fill="#8ed758"/>
			</g>
			<g>
				<path d="M-136.599998,-55.300003C-151.300003,-55.300003 -163.099998,-63 -163.099998,-72.699997 C-163.099998,-82.300003 -151.300003,-90.100006 -136.599998,-90.100006 C-122,-90.100006 -110.100006,-82.300003 -110.100006,-72.699997 C-110.100006,-63 -122,-55.300003 -136.599998,-55.300003 C-136.599998,-55.300003 -136.599998,-55.300003 -136.599998,-55.300003 Z" fill="#70b33e"/>
			</g>
			<g>
				<path d="M-144.199997,-61.199997C-160.199997,-61.199997 -173.099998,-69.899994 -173.099998,-80.600006 C-173.099998,-91.300003 -160.199997,-100 -144.199997,-100 C-128.300003,-100 -115.399994,-91.300003 -115.399994,-80.600006 C-115.399994,-69.899994 -128.300003,-61.199997 -144.199997,-61.199997 C-144.199997,-61.199997 -144.199997,-61.199997 -144.199997,-61.199997 Z" fill="#86c15a"/>
			</g>
		</g>
		<g transform="matrix(1,0,0,1,146.199996948,34)">
			<g>
				<path d="M-146.300003,32C-178.199997,32 -204,15.100006 -204,-5.899994 C-204,-26.800003 -179.699997,-21.5 -147.800003,-22.399994 C-104.399994,-23.5 -88.699997,-26.800003 -88.699997,-5.899994 C-88.699997,15.100006 -114.5,32 -146.300003,32 C-146.300003,32 -146.300003,32 -146.300003,32 Z" fill="#884b23"/>
			</g>
			<g/>
		</g>
	</g>
</g></g></svg>